<svg xmlns="http://www.w3.org/2000/svg" viewBox="0 0 512 512" role="img" aria-label="VW EU Data Act integration logo">
  <defs>
    <linearGradient id="bg" x1="0" y1="0" x2="1" y2="1">
      <stop offset="0%" stop-color="#0b2a44"/>
      <stop offset="100%" stop-color="#134f77"/>
    </linearGradient>
    <linearGradient id="ring" x1="0" y1="0" x2="1" y2="1">
      <stop offset="0%" stop-color="#61dafb"/>
      <stop offset="100%" stop-color="#35d3a7"/>
    </linearGradient>
  </defs>

  <circle cx="256" cy="256" r="240" fill="url(#bg)"/>
  <circle cx="256" cy="256" r="206" fill="none" stroke="url(#ring)" stroke-width="20"/>

  <path d="M120 305c18-68 79-118 136-118s118 50 136 118" fill="none" stroke="#d9f7ff" stroke-width="18" stroke-linecap="round"/>
  <path d="M164 305h184" fill="none" stroke="#d9f7ff" stroke-width="18" stroke-linecap="round"/>

  <circle cx="192" cy="331" r="22" fill="#d9f7ff"/>
  <circle cx="320" cy="331" r="22" fill="#d9f7ff"/>

  <polyline points="171,206 212,246 266,204 310,248 341,220" fill="none" stroke="#35d3a7" stroke-width="14" stroke-linecap="round" stroke-linejoin="round"/>

  <circle cx="171" cy="206" r="8" fill="#35d3a7"/>
  <circle cx="212" cy="246" r="8" fill="#35d3a7"/>
  <circle cx="266" cy="204" r="8" fill="#35d3a7"/>
  <circle cx="310" cy="248" r="8" fill="#35d3a7"/>
  <circle cx="341" cy="220" r="8" fill="#35d3a7"/>
</svg>
